<?xml version="1.0" standalone="no"?>
<!DOCTYPE svg PUBLIC "-//W3C//DTD SVG 20010904//EN"
 "http://www.w3.org/TR/2001/REC-SVG-20010904/DTD/svg10.dtd">
<svg version="1.0" xmlns="http://www.w3.org/2000/svg"
 width="700.000000pt" height="700.000000pt" viewBox="0 0 700.000000 700.000000"
 preserveAspectRatio="xMidYMid meet">
<metadata>
Created by potrace 1.14, written by Peter Selinger 2001-2017
</metadata>
<g transform="translate(0.000000,700.000000) scale(0.100000,-0.100000)"
fill="#000000" stroke="none">
<path d="M1097 6964 c-1 -1 -30 -4 -64 -8 -114 -12 -290 -67 -393 -122 -285
-154 -510 -446 -574 -746 -9 -40 -19 -86 -22 -103 -4 -16 -8 -1141 -8 -2499
-2 -2356 -1 -2473 16 -2573 40 -226 149 -439 305 -598 81 -82 107 -104 202
-167 27 -18 180 -95 216 -109 108 -41 -33 -39 2760 -39 l2641 0 70 24 c104 36
175 70 256 122 119 76 181 133 303 277 55 64 140 232 174 341 l21 68 0 2630
c0 2969 9 2671 -85 2863 -164 334 -454 551 -836 626 -50 10 -601 13 -2522 14
-1352 0 -2459 0 -2460 -1z"/>
</g>
</svg>
